<svg id="robot" xmlns="http://www.w3.org/2000/svg" viewBox="0 0 178.833 179.369">
        <g id="robot-body">
        <polygon id="top" points="12.907 6.062 143.828 .5 168.469 8.985 37.548 14.547 12.907 6.062"/>
        <polygon id="side" points="37.548 14.547 48.412 178.869 .5 162.372 .53 157.498 .575 150.22 .633 140.754 7.757 127.178 12.907 6.062 37.548 14.547"/>
        <polygon id="front" points="37.548 14.547 168.469 8.985 178.333 172.307 48.412 178.869 37.548 14.547"/>
        <polyline id="light-1" class="blink-1" points="79.004 148.887 68.283 149.449 69.112 160.493 79.834 159.931 79.004 148.887"/>
        <polyline id="light-2" class="blink-2" points="95.091 148.044 84.369 148.606 85.199 159.65 95.921 159.088 95.091 148.044"/>
        <g id="speaker">
          <polyline points="157.698 144.251 135.3 145.425 135.337 145.917 135.374 146.417 157.772 145.244 157.698 144.251"/>
          <polyline points="158.53 155.331 136.132 156.505 136.169 156.997 136.207 157.498 158.605 156.324 158.53 155.331"/>
          <polyline points="160.067 147.835 133.494 149.227 133.53 149.719 133.568 150.22 160.142 148.827 160.067 147.835"/>
          <polyline points="160.345 151.528 133.771 152.921 133.808 153.413 133.846 153.913 160.419 152.521 160.345 151.528"/>
        </g>
      </g>
      <g id="robot-display">
        <!-- Row 1 (top row) -->
        <polyline class="robot-dot" data-row="1" data-col="7" points="153.345 22.713 143.357 23.236 144.094 33.437 154.081 32.914 153.345 22.713"/>
        <polyline class="robot-dot" data-row="1" data-col="6" points="138.488 23.492 128.5 24.015 129.236 34.216 139.224 33.692 138.488 23.492"/>
        <polyline class="robot-dot" data-row="1" data-col="5" points="123.64 24.27 113.643 24.794 114.379 34.994 124.376 34.47 123.64 24.27"/>
        <polyline class="robot-dot" data-row="1" data-col="4" points="108.782 25.048 98.795 25.572 99.531 35.773 109.519 35.249 108.782 25.048"/>
        <polyline class="robot-dot" data-row="1" data-col="3" points="93.935 25.826 83.938 26.35 84.674 36.551 94.671 36.027 93.935 25.826"/>
        <polyline class="robot-dot" data-row="1" data-col="2" points="79.077 26.605 69.09 27.129 69.826 37.329 79.813 36.806 79.077 26.605"/>
        <polyline class="robot-dot" data-row="1" data-col="1" points="64.23 27.383 54.232 27.907 54.968 38.108 64.966 37.584 64.23 27.383"/>
        
        <!-- Row 2 -->
        <polyline class="robot-dot" data-row="2" data-col="7" points="154.439 37.878 144.452 38.401 145.189 48.612 155.176 48.088 154.439 37.878"/>
        <polyline class="robot-dot" data-row="2" data-col="6" points="139.582 38.656 129.594 39.18 130.331 49.39 140.319 48.867 139.582 38.656"/>
        <polyline class="robot-dot" data-row="2" data-col="5" points="124.734 39.434 114.737 39.958 115.474 50.169 125.471 49.645 124.734 39.434"/>
        <polyline class="robot-dot" data-row="2" data-col="4" points="109.877 40.213 99.889 40.736 100.626 50.947 110.614 50.424 109.877 40.213"/>
        <polyline class="robot-dot" data-row="2" data-col="3" points="95.029 40.991 85.032 41.515 85.769 51.726 95.766 51.202 95.029 40.991"/>
        <polyline class="robot-dot" data-row="2" data-col="2" points="80.172 41.77 70.184 42.293 70.921 52.504 80.909 51.98 80.172 41.77"/>
        <polyline class="robot-dot" data-row="2" data-col="1" points="65.324 42.548 55.327 43.072 56.063 53.282 66.061 52.759 65.324 42.548"/>
        
        <!-- Row 3 -->
        <polyline class="robot-dot" data-row="3" data-col="7" points="155.534 53.052 145.547 53.575 146.283 63.776 156.271 63.253 155.534 53.052"/>
        <polyline class="robot-dot" data-row="3" data-col="6" points="140.677 53.831 130.689 54.354 131.426 64.555 141.413 64.032 140.677 53.831"/>
        <polyline class="robot-dot" data-row="3" data-col="5" points="125.829 54.609 115.832 55.133 116.568 65.334 126.565 64.81 125.829 54.609"/>
        <polyline class="robot-dot" data-row="3" data-col="4" points="110.972 55.387 100.984 55.911 101.72 66.112 111.708 65.588 110.972 55.387"/>
        <polyline class="robot-dot" data-row="3" data-col="3" points="96.124 56.166 86.127 56.69 86.863 66.89 96.86 66.366 96.124 56.166"/>
        <polyline class="robot-dot" data-row="3" data-col="2" points="81.267 56.944 71.279 57.468 72.015 67.669 82.003 67.145 81.267 56.944"/>
        <polyline class="robot-dot" data-row="3" data-col="1" points="66.419 57.722 56.422 58.246 57.158 68.447 67.155 67.923 66.419 57.722"/>
        
        <!-- Row 4 -->
        <polyline class="robot-dot" data-row="4" data-col="7" points="156.629 68.217 146.641 68.74 147.378 78.951 157.366 78.427 156.629 68.217"/>
        <polyline class="robot-dot" data-row="4" data-col="6" points="141.771 68.995 131.784 69.519 132.521 79.729 142.508 79.206 141.771 68.995"/>
        <polyline class="robot-dot" data-row="4" data-col="5" points="126.924 69.774 116.926 70.298 117.663 80.508 127.66 79.984 126.924 69.774"/>
        <polyline class="robot-dot" data-row="4" data-col="4" points="112.066 70.552 102.079 71.076 102.815 81.286 112.803 80.763 112.066 70.552"/>
        <polyline class="robot-dot" data-row="4" data-col="3" points="97.218 71.33 87.221 71.854 87.958 82.065 97.955 81.541 97.218 71.33"/>
        <polyline class="robot-dot" data-row="4" data-col="2" points="82.361 72.109 72.373 72.632 73.11 82.843 83.098 82.32 82.361 72.109"/>
        <polyline class="robot-dot" data-row="4" data-col="1" points="67.513 72.887 57.516 73.411 58.253 83.622 68.25 83.098 67.513 72.887"/>
        
        <!-- Row 5 -->
        <polyline class="robot-dot" data-row="5" data-col="7" points="157.724 83.391 147.736 83.915 148.472 94.116 158.46 93.592 157.724 83.391"/>
        <polyline class="robot-dot" data-row="5" data-col="6" points="142.866 84.17 132.879 84.693 133.615 94.894 143.603 94.371 142.866 84.17"/>
        <polyline class="robot-dot" data-row="5" data-col="5" points="128.019 84.948 118.021 85.472 118.757 95.673 128.755 95.149 128.019 84.948"/>
        <polyline class="robot-dot" data-row="5" data-col="4" points="113.161 85.727 103.174 86.25 103.91 96.451 113.897 95.928 113.161 85.727"/>
        <polyline class="robot-dot" data-row="5" data-col="3" points="98.313 86.505 88.316 87.029 89.052 97.23 99.05 96.706 98.313 86.505"/>
        <polyline class="robot-dot" data-row="5" data-col="2" points="83.456 87.283 73.468 87.807 74.205 98.008 84.192 97.484 83.456 87.283"/>
        <polyline class="robot-dot" data-row="5" data-col="1" points="68.608 88.062 58.611 88.586 59.347 98.786 69.344 98.262 68.608 88.062"/>
        
        <!-- Row 6 -->
        <polyline class="robot-dot" data-row="6" data-col="7" points="158.818 98.556 148.83 99.079 149.567 109.29 159.555 108.767 158.818 98.556"/>
        <polyline class="robot-dot" data-row="6" data-col="6" points="143.961 99.335 133.973 99.858 134.71 110.069 144.698 109.545 143.961 99.335"/>
        <polyline class="robot-dot" data-row="6" data-col="5" points="129.113 100.113 119.116 100.637 119.853 110.847 129.85 110.323 129.113 100.113"/>
        <polyline class="robot-dot" data-row="6" data-col="4" points="114.256 100.891 104.268 101.415 105.005 111.625 114.992 111.102 114.256 100.891"/>
        <polyline class="robot-dot" data-row="6" data-col="3" points="99.408 101.67 89.411 102.193 90.147 112.404 100.145 111.88 99.408 101.67"/>
        <polyline class="robot-dot" data-row="6" data-col="2" points="84.55 102.448 74.563 102.972 75.3 113.182 85.287 112.659 84.55 102.448"/>
        <polyline class="robot-dot" data-row="6" data-col="1" points="69.703 103.226 59.705 103.75 60.442 113.961 70.439 113.437 69.703 103.226"/>
        
        <!-- Row 7 (bottom row) - Fixing misplaced coordinates -->
        <polyline class="robot-dot" data-row="7" data-col="7" points="159.913 113.73 149.926 114.254 150.662 124.455 160.649 123.931 159.913 113.73"/>
        <polyline class="robot-dot" data-row="7" data-col="6" points="145.056 114.509 135.068 115.033 135.804 125.233 145.792 124.71 145.056 114.509"/>
        <polyline class="robot-dot" data-row="7" data-col="5" points="130.208 115.287 120.211 115.811 120.947 126.012 130.944 125.488 130.208 115.287"/>
        <polyline class="robot-dot" data-row="7" data-col="4" points="115.351 116.066 105.363 116.589 106.099 126.79 116.087 126.267 115.351 116.066"/>
        <polyline class="robot-dot" data-row="7" data-col="3" points="100.503 116.844 90.506 117.368 91.242 127.569 101.239 127.045 100.503 116.844"/>
        <polyline class="robot-dot" data-row="7" data-col="2" points="85.645 117.623 75.658 118.146 76.394 128.347 86.382 127.823 85.645 117.623"/>
        <polyline class="robot-dot" data-row="7" data-col="1" points="70.798 118.401 60.8 118.925 61.537 129.126 71.534 128.602 70.798 118.401"/>
      </g>
</svg>