<svg xmlns="http://www.w3.org/2000/svg" width="821" height="272" fill="none" viewBox="0 0 821 272">
  <path fill="currentColour" d="M0 40h11v192H0V40Zm810 0h11v192h-11V40ZM33 10V0h755v10H33Zm0 262v-10h755v10H33ZM810 20h11v20h-11V20Zm-11-10h11v20h-11V10ZM788 0h11v20h-11V0Zm22 252h11v-20h-11v20Zm-11 10h11v-20h-11v20Zm-11 10h11v-20h-11v20ZM11 20H0v20h11V20Zm11-10H11v20h11V10ZM33 0H22v20h11V0ZM11 252H0v-20h11v20Zm11 10H11v-20h11v20Zm11 10H22v-20h11v20Zm181.509-129.9v25.3h-5v6.3h-4.9v6.3h-29.5v-6.3h-5v-6.3h-4.9v-12.7h9.9v6.4h4.9v6.3h19.7v-6.3h4.9v-12.7h-4.9v-6.3h-24.6v-6.3h-5v-6.3h-4.9v-25.3h4.9v-6.3h5v-6.3h29.5v6.3h4.9v6.3h5v12.6h-9.9v-6.3h-4.9v-6.3h-19.7v6.3h-4.9v12.7h4.9v6.3h24.6v6.3h4.9v6.3h5Zm60.082-25.3v37.9h-5v12.7h-4.9v6.3h-4.9v6.3h-19.7v-6.3h-4.9v-6.3h-5v-12.7h-4.9v-37.9h4.9v-12.6h5v-6.3h4.9v-6.3h19.7v6.3h4.9v6.3h4.9v12.6h5Zm-14.8 37.9h4.9v-37.9h-4.9v-6.3h-4.9v-6.3h-9.9v6.3h-4.9v6.3h-4.9v37.9h4.9v6.4h4.9v6.3h9.9v-6.3h4.9v-6.4Zm74.882-63.1v69.5h-5v12.6h-4.9v6.3h-29.5v-6.3h-5v-12.6h-4.9V91.6h9.9v69.5h4.9v6.3h19.7v-6.3h4.9V91.6h9.9Zm60.082 0V180h-9.9v-6.3h-4.9v-12.6h-4.9v-6.4h-5v-12.6h-4.9v-12.6h-4.9v-12.7h-4.9V180h-9.9V91.6h9.9v6.3h4.9v12.6h4.9v6.3h4.9v12.7h5v12.6h4.9v12.6h4.9V91.6h9.9Zm60.082 25.2v37.9h-5v12.7h-4.9v6.3h-4.9v6.3h-34.5V91.6h34.5v6.3h4.9v6.3h4.9v12.6h5Zm-14.8 37.9h4.9v-37.9h-4.9v-6.3h-4.9v-6.3h-19.7v63.2h19.7v-6.3h4.9v-6.4Zm105.374-37.9v37.9h-5v12.7h-4.9v6.3h-4.9v6.3h-19.7v-6.3h-4.9v-6.3h-5v-12.7h-4.9v-37.9h4.9v-12.6h5v-6.3h4.9v-6.3h19.7v6.3h4.9v6.3h4.9v12.6h5Zm-14.8 37.9h4.9v-37.9h-4.9v-6.3h-4.9v-6.3h-9.9v6.3h-4.9v6.3h-4.9v37.9h4.9v6.4h4.9v6.3h9.9v-6.3h4.9v-6.4Zm74.882-63.1v12.6h-39.4v25.3h29.5v12.6h-29.5V180h-9.9V91.6h49.3Zm55.199 0v12.6h-39.4v25.3h29.5v12.6h-29.5V180h-9.9V91.6h49.3Z"/>
</svg>
